<?xml version="1.0" encoding="UTF-8" standalone="no"?>
<!-- Created with Inkscape (http://www.inkscape.org/) -->

<svg
   width="148.5mm"
   height="210mm"
   viewBox="0 0 561.25985 793.70081"
   version="1.1"
   id="svg1"
   sodipodi:docname="symphony.svg"
   inkscape:version="1.3.2 (091e20e, 2023-11-25, custom)"
   xmlns:inkscape="http://www.inkscape.org/namespaces/inkscape"
   xmlns:sodipodi="http://sodipodi.sourceforge.net/DTD/sodipodi-0.dtd"
   xmlns="http://www.w3.org/2000/svg"
   xmlns:svg="http://www.w3.org/2000/svg">
  <sodipodi:namedview
     id="namedview1"
     pagecolor="#505050"
     bordercolor="#eeeeee"
     borderopacity="1"
     inkscape:showpageshadow="0"
     inkscape:pageopacity="0"
     inkscape:pagecheckerboard="0"
     inkscape:deskcolor="#505050"
     inkscape:document-units="mm"
     inkscape:zoom="0.9567761"
     inkscape:cx="321.9144"
     inkscape:cy="407.61888"
     inkscape:window-width="1920"
     inkscape:window-height="974"
     inkscape:window-x="-11"
     inkscape:window-y="-11"
     inkscape:window-maximized="1"
     inkscape:current-layer="svg1" />
  <defs
     id="defs1" />
  <g
     id="layer1"
     transform="matrix(0.95765391,0,0,1,-513.71498,0)"
     style="stroke-width:1.02187">
    <rect
       style="font-variation-settings:normal;opacity:1;fill:#f7e14d;fill-opacity:1;fill-rule:evenodd;stroke:none;stroke-width:1.02347;stroke-linecap:butt;stroke-linejoin:miter;stroke-miterlimit:8.2;stroke-dasharray:none;stroke-dashoffset:0;stroke-opacity:1;paint-order:stroke fill markers;stop-color:#000000;stop-opacity:1"
       id="rect42"
       width="195.53387"
       height="201.06613"
       x="535.91791"
       y="391.06775" />
    <rect
       style="font-variation-settings:normal;opacity:1;fill:none;fill-opacity:1;fill-rule:evenodd;stroke:#000000;stroke-width:1.02347;stroke-linecap:butt;stroke-linejoin:miter;stroke-miterlimit:8.2;stroke-dasharray:none;stroke-dashoffset:0;stroke-opacity:1;paint-order:stroke fill markers;stop-color:#000000;stop-opacity:1"
       id="rect6"
       width="195.53387"
       height="195.53387"
       x="926.98578"
       y="1.1368684e-13" />
    <rect
       style="font-variation-settings:normal;opacity:1;fill:none;fill-opacity:1;fill-rule:evenodd;stroke:#000000;stroke-width:1.02347;stroke-linecap:butt;stroke-linejoin:miter;stroke-miterlimit:8.2;stroke-dasharray:none;stroke-dashoffset:0;stroke-opacity:1;paint-order:stroke fill markers;stop-color:#000000;stop-opacity:1"
       id="rect9"
       width="195.53387"
       height="195.53387"
       x="926.98578"
       y="195.53387" />
    <rect
       style="font-variation-settings:normal;opacity:1;fill:#fe44bc;fill-opacity:1;fill-rule:evenodd;stroke:none;stroke-width:1.02347;stroke-linecap:butt;stroke-linejoin:miter;stroke-miterlimit:8.2;stroke-dasharray:none;stroke-dashoffset:0;stroke-opacity:1;paint-order:stroke fill markers;stop-color:#000000;stop-opacity:1"
       id="rect11"
       width="195.53387"
       height="195.53387"
       x="535.91791"
       y="195.53387" />
    <rect
       style="font-variation-settings:normal;opacity:1;fill:#4a0020;fill-opacity:1;fill-rule:evenodd;stroke:none;stroke-width:1.02347;stroke-linecap:butt;stroke-linejoin:miter;stroke-miterlimit:8.2;stroke-dasharray:none;stroke-dashoffset:0;stroke-opacity:1;paint-order:stroke fill markers;stop-color:#000000;stop-opacity:1"
       id="rect12"
       width="195.53387"
       height="201.06613"
       x="926.98578"
       y="391.06775" />
    <path
       id="rect14"
       style="font-variation-settings:normal;opacity:1;fill:#6c380c;fill-opacity:1;fill-rule:evenodd;stroke:none;stroke-width:1.02347;stroke-linecap:butt;stroke-linejoin:miter;stroke-miterlimit:8.2;stroke-dasharray:none;stroke-dashoffset:0;stroke-opacity:1;paint-order:stroke fill markers;stop-color:#000000;stop-opacity:1"
       d="m 536.0547,391.06837 -0.13672,5.7832 a 195.53419,195.53416 0 0 0 190.36915,195.28321 h 5.16406 V 391.06837 Z" />
    <rect
       style="font-variation-settings:normal;opacity:1;fill:#4a0020;fill-opacity:1;fill-rule:evenodd;stroke:none;stroke-width:1.02347;stroke-linecap:butt;stroke-linejoin:miter;stroke-miterlimit:8.2;stroke-dasharray:none;stroke-dashoffset:0;stroke-opacity:1;paint-order:stroke fill markers;stop-color:#000000;stop-opacity:1"
       id="rect15"
       width="195.53394"
       height="201.56696"
       x="926.98578"
       y="592.13385" />
    <path
       style="opacity:1;fill:#5b0909;fill-opacity:1;stroke:#000000;stroke-width:1.02347;stroke-linejoin:round;stroke-miterlimit:8.2;stroke-dasharray:none;stroke-opacity:1;paint-order:stroke fill markers"
       id="path29"
       d="M 731.67043,186.29014 A 195.53391,195.53387 0 0 1 933.91965,0.1229826 195.53391,195.53387 0 0 1 1122.465,200.15704 195.53391,195.53387 0 0 1 924.67397,391.05408 195.53391,195.53387 0 0 1 731.45181,195.53387" />
    <path
       style="opacity:1;fill:#ffd700;fill-opacity:1;stroke:none;stroke-width:1.02347;stroke-linejoin:round;stroke-miterlimit:8.2;stroke-dasharray:none;stroke-opacity:1;paint-order:stroke fill markers"
       id="path30"
       d="M 536.02867,93.143716 A 97.766251,97.766235 0 0 1 637.15255,0.06080421 97.766251,97.766235 0 0 1 731.42453,100.07711 97.766251,97.766235 0 0 1 632.52974,195.52495 97.766251,97.766235 0 0 1 535.91936,97.765549" />
    <path
       style="opacity:1;fill:#ffffff;fill-opacity:1;stroke:#000000;stroke-width:1.02347;stroke-linejoin:round;stroke-miterlimit:8.2;stroke-dasharray:none;stroke-opacity:1;paint-order:stroke fill markers"
       id="path31"
       d="m 860.77764,192.39974 a 66.282547,66.282539 0 0 1 68.55892,-63.10739 66.282547,66.282539 0 0 1 63.91354,67.80802 66.282547,66.282539 0 0 1 -67.04766,64.71074 66.282547,66.282539 0 0 1 -65.4989,-66.27791" />
    <path
       style="opacity:1;fill:#ffffff;fill-opacity:1;stroke:none;stroke-width:1.02347;stroke-linejoin:round;stroke-miterlimit:8.2;stroke-dasharray:none;stroke-opacity:1;paint-order:stroke fill markers"
       id="path32"
       d="M 591.60045,95.773484 A 42.13245,42.132442 0 0 1 635.17987,55.659323 42.13245,42.132442 0 0 1 675.80646,98.761437 42.13245,42.132442 0 0 1 633.18767,139.89476 42.13245,42.132442 0 0 1 591.55334,97.765266" />
    <path
       style="opacity:1;fill:#ffb234;fill-opacity:1;stroke:none;stroke-width:1.02347;stroke-linejoin:round;stroke-miterlimit:8.2;stroke-dasharray:none;stroke-opacity:1;paint-order:stroke fill markers"
       d="M 926.98572,195.53387 V 0 l -97.76694,97.766937 z"
       id="path33" />
    <path
       style="opacity:1;fill:#ff3473;fill-opacity:1;stroke:none;stroke-width:1.02347;stroke-linejoin:round;stroke-miterlimit:8.2;stroke-dasharray:none;stroke-opacity:1;paint-order:stroke fill markers"
       d="M 926.98575,0 731.45182,195.53387 V 0 Z"
       id="path34" />
    <rect
       style="font-variation-settings:normal;opacity:1;fill:#ffffff;fill-opacity:1;fill-rule:evenodd;stroke:none;stroke-width:1.02347;stroke-linecap:butt;stroke-linejoin:miter;stroke-miterlimit:8.2;stroke-dasharray:none;stroke-dashoffset:0;stroke-opacity:1;paint-order:stroke fill markers;stop-color:#000000;stop-opacity:1"
       id="rect34"
       width="195.53387"
       height="195.53387"
       x="926.98578"
       y="195.53387" />
    <path
       style="opacity:1;fill:#ffffff;fill-opacity:1;stroke:none;stroke-width:1.02347;stroke-linejoin:round;stroke-miterlimit:8.2;stroke-dasharray:none;stroke-opacity:1;paint-order:stroke fill markers"
       id="path35"
       d="m 571.65386,247.62759 a 20.815208,20.815205 0 0 1 21.53008,-19.81808 20.815208,20.815205 0 0 1 20.07125,21.29426 20.815208,20.815205 0 0 1 -21.05548,20.3216 20.815208,20.815205 0 0 1 -20.56912,-20.81375" />
    <path
       style="opacity:1;fill:#ffffff;fill-opacity:1;stroke:none;stroke-width:1.02347;stroke-linejoin:round;stroke-miterlimit:8.2;stroke-dasharray:none;stroke-opacity:1;paint-order:stroke fill markers"
       id="path36"
       d="m 660.36706,247.62759 a 20.815208,20.815205 0 0 1 21.53008,-19.81808 20.815208,20.815205 0 0 1 20.07125,21.29426 20.815208,20.815205 0 0 1 -21.05549,20.3216 20.815208,20.815205 0 0 1 -20.56911,-20.81375" />
    <path
       style="opacity:1;fill:#ffffff;fill-opacity:1;stroke:none;stroke-width:1.02347;stroke-linejoin:round;stroke-miterlimit:8.2;stroke-dasharray:none;stroke-opacity:1;paint-order:stroke fill markers"
       id="path37"
       d="m 660.36706,321.52055 a 20.815208,20.815205 0 0 1 21.53008,-19.81809 20.815208,20.815205 0 0 1 20.07125,21.29427 20.815208,20.815205 0 0 1 -21.05549,20.3216 20.815208,20.815205 0 0 1 -20.56911,-20.81375" />
    <path
       style="opacity:1;fill:#ffffff;fill-opacity:1;stroke:none;stroke-width:1.02347;stroke-linejoin:round;stroke-miterlimit:8.2;stroke-dasharray:none;stroke-opacity:1;paint-order:stroke fill markers"
       id="path38"
       d="m 571.65386,321.52055 a 20.815208,20.815205 0 0 1 21.53008,-19.81809 20.815208,20.815205 0 0 1 20.07125,21.29427 20.815208,20.815205 0 0 1 -21.05548,20.3216 20.815208,20.815205 0 0 1 -20.56912,-20.81375" />
    <path
       id="path39"
       style="opacity:1;fill:#ffd700;fill-opacity:1;stroke:none;stroke-width:1.02347;stroke-linejoin:round;stroke-miterlimit:8.2;stroke-dasharray:none;stroke-opacity:1;paint-order:stroke fill markers"
       d="M 1122.5196,198.36915 A 194.03105,201.06514 0 0 0 929.76174,389.51173 l -0.0352,1.55664 h 105.11336 a 89.337448,92.592049 0 0 1 87.6797,-84.31446 z" />
    <path
       style="opacity:1;fill:#ffffff;fill-opacity:1;stroke:none;stroke-width:1.02347;stroke-linejoin:round;stroke-miterlimit:8.2;stroke-dasharray:none;stroke-opacity:1;paint-order:stroke fill markers"
       id="path41"
       d="m 860.77764,192.39974 a 66.282547,66.282539 0 0 1 68.55892,-63.10739 66.282547,66.282539 0 0 1 63.91354,67.80802 66.282547,66.282539 0 0 1 -67.04766,64.71074 66.282547,66.282539 0 0 1 -65.4989,-66.27791" />
    <path
       style="opacity:1;fill:#f74daf;fill-opacity:1;stroke:none;stroke-width:1.02347;stroke-linejoin:round;stroke-miterlimit:8.2;stroke-dasharray:none;stroke-opacity:1;paint-order:stroke fill markers"
       d="m 535.91791,592.13391 v 201.5669 L 731.45185,592.13385 H 535.91791"
       id="path42" />
    <path
       style="opacity:1;fill:#503f0e;fill-opacity:1;stroke:none;stroke-width:1.02347;stroke-linejoin:round;stroke-miterlimit:8.2;stroke-dasharray:none;stroke-opacity:1;paint-order:stroke fill markers"
       d="M 731.45185,793.70081 V 592.13385 L 535.91791,793.70081 h 195.53394"
       id="path43" />
    <path
       id="path44"
       style="opacity:1;fill:#ffd700;fill-opacity:1;stroke:none;stroke-width:1.02347;stroke-linejoin:round;stroke-miterlimit:8.2;stroke-dasharray:none;stroke-opacity:1;paint-order:stroke fill markers"
       d="M 731.45185,793.70081 C 834.48905,793.1084 921.9023,704.33968 926.98578,593.61952 l 0.0352,-1.51646 -97.8022,0.0308 c -4.08514,49.03247 -52.02171,87.05521 -97.76693,87.77206 z" />
    <path
       id="path45"
       style="opacity:1;fill:#ffd700;fill-opacity:1;stroke:none;stroke-width:1.02347;stroke-linejoin:round;stroke-miterlimit:8.2;stroke-dasharray:none;stroke-opacity:1;paint-order:stroke fill markers"
       d="m 926.98572,391.06775 c -103.0372,0.59241 -190.41519,88.22904 -195.49867,198.9492 l -0.0352,1.61613 96.39653,0.50077 c 4.08514,-49.03247 53.39218,-87.69692 99.1374,-88.41377 z" />
    <path
       style="opacity:1;fill:#de3a7a;fill-opacity:1;stroke:none;stroke-width:1.02347;stroke-linejoin:round;stroke-miterlimit:8.2;stroke-dasharray:none;stroke-opacity:1;paint-order:stroke fill markers"
       d="m 926.98578,592.13391 97.76692,-100.53308 97.7669,100.53308 H 926.98578"
       id="path46" />
    <path
       style="opacity:1;fill:#e5b50d;fill-opacity:1;stroke:none;stroke-width:1.02347;stroke-linejoin:round;stroke-miterlimit:8.2;stroke-dasharray:none;stroke-opacity:1;paint-order:stroke fill markers"
       d="m 1120.2795,593.13543 -97.7669,100.53308 -95.52682,-101.53466 195.53382,0.50082"
       id="path47" />
    <path
       style="opacity:1;fill:#ffffff;fill-opacity:1;stroke:none;stroke-width:1.02347;stroke-linejoin:round;stroke-miterlimit:8.2;stroke-dasharray:none;stroke-opacity:1;paint-order:stroke fill markers"
       id="path48"
       d="m 1002.623,490.73953 a 23.526184,23.526178 0 0 1 24.3342,-22.3992 23.526184,23.526178 0 0 1 22.6853,24.06763 23.526184,23.526178 0 0 1 -23.7977,22.96829 23.526184,23.526178 0 0 1 -23.2481,-23.52453" />
    <path
       style="opacity:1;fill:#ffffff;fill-opacity:1;stroke:none;stroke-width:1.02347;stroke-linejoin:round;stroke-miterlimit:8.2;stroke-dasharray:none;stroke-opacity:1;paint-order:stroke fill markers"
       id="path49"
       d="m 1001.2528,691.55469 a 23.526184,23.526178 0 0 1 24.3342,-22.3992 23.526184,23.526178 0 0 1 22.6853,24.06763 23.526184,23.526178 0 0 1 -23.7978,22.96828 23.526184,23.526178 0 0 1 -23.248,-23.52453" />
  </g>
</svg>
